<svg width="153" height="47" viewBox="0 0 153 47" fill="none" xmlns="http://www.w3.org/2000/svg">
<path d="M25.8841 46.3192V30.312L27.2464 29.0348M36.7827 42.2323V30.312L31.3334 25.2033L27.2464 29.0348M27.2464 23.5004V29.0348M40.529 23.5004V38.4859M19.4131 9.53662H35.4203M33.3769 16.6888H44.616" stroke="#CFCFCF" stroke-width="2"/>
<path d="M19.4133 45.9784V20.435M9.19589 24.5219V13.2828L19.4133 6.47119V13.2828M9.19589 24.5219H15.3263V44.6161M9.19589 24.5219H4.76835M12.6017 27.9277H1.02197M2.04371 31.6741H9.19589M12.6017 31.6741H9.19589M9.19589 31.6741V41.2103M19.4133 13.2828H43.935M19.4133 13.2828V17.0292M19.4133 17.0292H27.9278M19.4133 17.0292V20.435M19.4133 20.435H35.7611" stroke="#004CDD" stroke-width="2"/>
<rect x="12.2612" y="15.3262" width="4.76812" height="4.76812" fill="#004CDD"/>
<rect x="29.29" y="33.7178" width="1.36232" height="1.36232" fill="#004CDD"/>
<rect x="32.0146" y="33.7178" width="1.36232" height="1.36232" fill="#004CDD"/>
<rect x="32.0146" y="36.4424" width="1.36232" height="1.36232" fill="#004CDD"/>
<rect x="29.29" y="36.4424" width="1.36232" height="1.36232" fill="#004CDD"/>
<rect x="11.9207" y="34.7395" width="0.681159" height="0.681159" fill="#A1A1A1" stroke="#CFCFCF" stroke-width="0.681159"/>
<rect x="11.9207" y="38.1453" width="0.681159" height="0.681159" fill="#A1A1A1" stroke="#CFCFCF" stroke-width="0.681159"/>
<circle cx="23.5" cy="23.5" r="22.5" stroke="#004CDD" stroke-width="2"/>
<mask id="path-11-outside-1_128_2217" maskUnits="userSpaceOnUse" x="57" y="9.5" width="96" height="28" fill="black">
<rect fill="white" x="57" y="9.5" width="96" height="28"/>
<path d="M58.988 16.28V15.23H61.844C62.404 15.23 62.8567 15.0573 63.202 14.712C63.5567 14.3573 63.734 13.9 63.734 13.34C63.734 12.7613 63.5567 12.304 63.202 11.968C62.8567 11.6227 62.404 11.45 61.844 11.45H59.212V19.5H58.092V10.4H61.844C62.264 10.4 62.656 10.4653 63.02 10.596C63.384 10.7267 63.7013 10.918 63.972 11.17C64.252 11.422 64.4667 11.73 64.616 12.094C64.7747 12.458 64.854 12.8733 64.854 13.34C64.854 13.8067 64.7747 14.222 64.616 14.586C64.4667 14.95 64.252 15.258 63.972 15.51C63.7013 15.762 63.384 15.9533 63.02 16.084C62.656 16.2147 62.264 16.28 61.844 16.28H58.988ZM71.6568 19.64C70.8261 19.64 70.0701 19.4487 69.3888 19.066C68.7168 18.674 68.1801 18.128 67.7788 17.428C67.3775 16.728 67.1768 15.902 67.1768 14.95C67.1768 13.998 67.3775 13.172 67.7788 12.472C68.1801 11.7627 68.7168 11.2167 69.3888 10.834C70.0701 10.4513 70.8261 10.26 71.6568 10.26C72.4875 10.26 73.2388 10.4513 73.9108 10.834C74.5921 11.2167 75.1335 11.7627 75.5348 12.472C75.9361 13.172 76.1368 13.998 76.1368 14.95C76.1368 15.902 75.9361 16.728 75.5348 17.428C75.1335 18.128 74.5921 18.674 73.9108 19.066C73.2388 19.4487 72.4875 19.64 71.6568 19.64ZM71.6568 18.59C72.2915 18.59 72.8608 18.4547 73.3648 18.184C73.8688 17.904 74.2701 17.4933 74.5688 16.952C74.8675 16.4107 75.0168 15.7433 75.0168 14.95C75.0168 14.1567 74.8675 13.494 74.5688 12.962C74.2701 12.4207 73.8688 12.01 73.3648 11.73C72.8608 11.45 72.2915 11.31 71.6568 11.31C71.0315 11.31 70.4621 11.45 69.9488 11.73C69.4448 12.01 69.0435 12.4207 68.7448 12.962C68.4461 13.494 68.2968 14.1567 68.2968 14.95C68.2968 15.7433 68.4461 16.4107 68.7448 16.952C69.0435 17.4933 69.4448 17.904 69.9488 18.184C70.4621 18.4547 71.0315 18.59 71.6568 18.59ZM79.2201 19.5V10.4H83.2381C83.8727 10.4 84.4141 10.498 84.8621 10.694C85.3101 10.8807 85.6507 11.1653 85.8841 11.548C86.1267 11.9307 86.2481 12.4113 86.2481 12.99C86.2481 13.382 86.1827 13.718 86.0521 13.998C85.9307 14.278 85.7581 14.516 85.5341 14.712C85.3101 14.8987 85.0441 15.0433 84.7361 15.146C84.4374 15.2487 84.1107 15.314 83.7561 15.342L83.7141 15.272C84.2087 15.2907 84.6334 15.3513 84.9881 15.454C85.3427 15.5567 85.6181 15.7433 85.8141 16.014C86.0101 16.2847 86.1081 16.6907 86.1081 17.232V19.5H84.9881V17.232C84.9881 16.8587 84.9227 16.5693 84.7921 16.364C84.6707 16.1493 84.4607 16 84.1621 15.916C83.8727 15.8227 83.4714 15.776 82.9581 15.776H80.3401V19.5H79.2201ZM80.3401 14.726H83.2381C83.8727 14.726 84.3441 14.5673 84.6521 14.25C84.9694 13.9233 85.1281 13.5033 85.1281 12.99C85.1281 12.4953 84.9694 12.1173 84.6521 11.856C84.3441 11.5853 83.8727 11.45 83.2381 11.45H80.3401V14.726ZM88.5525 10.4H95.8325V11.45H88.5525V10.4ZM91.6325 11.338H92.7525V19.5H91.6325V11.338ZM98.5938 17.12V16.07H102.962V17.12H98.5938ZM96.7458 19.5L100.204 10.4H101.38L104.866 19.5H103.662L100.624 11.268H100.96L97.9218 19.5H96.7458ZM108.647 10.4V18.45H113.687V19.5H107.527V10.4H108.647ZM58.4 27.4H59.52V36.5H58.4V27.4ZM68.5678 35.828H68.1198L72.2638 27.4H73.3838V36.5H72.2638V29.346L72.4878 29.402L68.9038 36.5H67.7838L64.1998 29.416L64.4238 29.36V36.5H63.3038V27.4H64.4238L68.5678 35.828ZM80.9422 36.64C80.1115 36.64 79.3555 36.4487 78.6742 36.066C78.0022 35.674 77.4655 35.128 77.0642 34.428C76.6629 33.728 76.4622 32.902 76.4622 31.95C76.4622 30.998 76.6629 30.172 77.0642 29.472C77.4655 28.7627 78.0022 28.2167 78.6742 27.834C79.3555 27.4513 80.1115 27.26 80.9422 27.26C81.7729 27.26 82.5242 27.4513 83.1962 27.834C83.8775 28.2167 84.4189 28.7627 84.8202 29.472C85.2215 30.172 85.4222 30.998 85.4222 31.95C85.4222 32.902 85.2215 33.728 84.8202 34.428C84.4189 35.128 83.8775 35.674 83.1962 36.066C82.5242 36.4487 81.7729 36.64 80.9422 36.64ZM80.9422 35.59C81.5769 35.59 82.1462 35.4547 82.6502 35.184C83.1542 34.904 83.5555 34.4933 83.8542 33.952C84.1529 33.4107 84.3022 32.7433 84.3022 31.95C84.3022 31.1567 84.1529 30.494 83.8542 29.962C83.5555 29.4207 83.1542 29.01 82.6502 28.73C82.1462 28.45 81.5769 28.31 80.9422 28.31C80.3169 28.31 79.7475 28.45 79.2342 28.73C78.7302 29.01 78.3289 29.4207 78.0302 29.962C77.7315 30.494 77.5822 31.1567 77.5822 31.95C77.5822 32.7433 77.7315 33.4107 78.0302 33.952C78.3289 34.4933 78.7302 34.904 79.2342 35.184C79.7475 35.4547 80.3169 35.59 80.9422 35.59ZM88.5055 36.5V27.4H92.0895C93.0321 27.4 93.7648 27.6147 94.2875 28.044C94.8195 28.4733 95.0855 29.0707 95.0855 29.836C95.0855 30.312 94.9875 30.6993 94.7915 30.998C94.6048 31.2967 94.3388 31.5207 93.9935 31.67C93.6481 31.8193 93.2421 31.9173 92.7755 31.964L92.8035 31.88C93.1488 31.8987 93.4755 31.9453 93.7835 32.02C94.0915 32.0853 94.3621 32.1927 94.5955 32.342C94.8381 32.4913 95.0295 32.6967 95.1695 32.958C95.3095 33.2193 95.3795 33.5553 95.3795 33.966C95.3795 34.5167 95.2581 34.974 95.0155 35.338C94.7728 35.702 94.4321 35.982 93.9935 36.178C93.5641 36.3647 93.0695 36.472 92.5095 36.5H88.5055ZM89.6255 35.45H92.2295C92.8641 35.45 93.3588 35.3333 93.7135 35.1C94.0775 34.8573 94.2595 34.4793 94.2595 33.966C94.2595 33.5553 94.1428 33.2473 93.9095 33.042C93.6855 32.8367 93.3961 32.7013 93.0415 32.636C92.6868 32.5613 92.3228 32.524 91.9495 32.524H89.6255V35.45ZM89.6255 31.474H91.9495C92.5841 31.474 93.0788 31.3387 93.4335 31.068C93.7975 30.788 93.9795 30.3913 93.9795 29.878C93.9795 29.374 93.7975 29.01 93.4335 28.786C93.0788 28.562 92.6308 28.45 92.0895 28.45H89.6255V31.474ZM98.6724 27.4H99.7924V36.5H98.6724V27.4ZM104.696 27.4V35.45H109.736V36.5H103.576V27.4H104.696ZM113.101 27.4H114.221V36.5H113.101V27.4ZM119.012 34.12V33.07H123.38V34.12H119.012ZM117.164 36.5L120.622 27.4H121.798L125.284 36.5H124.08L121.042 28.268H121.378L118.34 36.5H117.164ZM120.664 26.126L122.148 23.872H123.618L121.658 26.126H120.664ZM127.946 36.5V27.4H131.964C132.599 27.4 133.14 27.498 133.588 27.694C134.036 27.8807 134.377 28.1653 134.61 28.548C134.853 28.9307 134.974 29.4113 134.974 29.99C134.974 30.382 134.909 30.718 134.778 30.998C134.657 31.278 134.484 31.516 134.26 31.712C134.036 31.8987 133.77 32.0433 133.462 32.146C133.163 32.2487 132.837 32.314 132.482 32.342L132.44 32.272C132.935 32.2907 133.359 32.3513 133.714 32.454C134.069 32.5567 134.344 32.7433 134.54 33.014C134.736 33.2847 134.834 33.6907 134.834 34.232V36.5H133.714V34.232C133.714 33.8587 133.649 33.5693 133.518 33.364C133.397 33.1493 133.187 33 132.888 32.916C132.599 32.8227 132.197 32.776 131.684 32.776H129.066V36.5H127.946ZM129.066 31.726H131.964C132.599 31.726 133.07 31.5673 133.378 31.25C133.695 30.9233 133.854 30.5033 133.854 29.99C133.854 29.4953 133.695 29.1173 133.378 28.856C133.07 28.5853 132.599 28.45 131.964 28.45H129.066V31.726ZM138.469 27.4H139.589V36.5H138.469V27.4ZM147.432 36.64C146.602 36.64 145.846 36.4487 145.164 36.066C144.492 35.674 143.956 35.128 143.554 34.428C143.153 33.728 142.952 32.902 142.952 31.95C142.952 30.998 143.153 30.172 143.554 29.472C143.956 28.7627 144.492 28.2167 145.164 27.834C145.846 27.4513 146.602 27.26 147.432 27.26C148.263 27.26 149.014 27.4513 149.686 27.834C150.368 28.2167 150.909 28.7627 151.31 29.472C151.712 30.172 151.912 30.998 151.912 31.95C151.912 32.902 151.712 33.728 151.31 34.428C150.909 35.128 150.368 35.674 149.686 36.066C149.014 36.4487 148.263 36.64 147.432 36.64ZM147.432 35.59C148.067 35.59 148.636 35.4547 149.14 35.184C149.644 34.904 150.046 34.4933 150.344 33.952C150.643 33.4107 150.792 32.7433 150.792 31.95C150.792 31.1567 150.643 30.494 150.344 29.962C150.046 29.4207 149.644 29.01 149.14 28.73C148.636 28.45 148.067 28.31 147.432 28.31C146.807 28.31 146.238 28.45 145.724 28.73C145.22 29.01 144.819 29.4207 144.52 29.962C144.222 30.494 144.072 31.1567 144.072 31.95C144.072 32.7433 144.222 33.4107 144.52 33.952C144.819 34.4933 145.22 34.904 145.724 35.184C146.238 35.4547 146.807 35.59 147.432 35.59Z"/>
</mask>
<path d="M58.988 16.28V15.23H61.844C62.404 15.23 62.8567 15.0573 63.202 14.712C63.5567 14.3573 63.734 13.9 63.734 13.34C63.734 12.7613 63.5567 12.304 63.202 11.968C62.8567 11.6227 62.404 11.45 61.844 11.45H59.212V19.5H58.092V10.4H61.844C62.264 10.4 62.656 10.4653 63.02 10.596C63.384 10.7267 63.7013 10.918 63.972 11.17C64.252 11.422 64.4667 11.73 64.616 12.094C64.7747 12.458 64.854 12.8733 64.854 13.34C64.854 13.8067 64.7747 14.222 64.616 14.586C64.4667 14.95 64.252 15.258 63.972 15.51C63.7013 15.762 63.384 15.9533 63.02 16.084C62.656 16.2147 62.264 16.28 61.844 16.28H58.988ZM71.6568 19.64C70.8261 19.64 70.0701 19.4487 69.3888 19.066C68.7168 18.674 68.1801 18.128 67.7788 17.428C67.3775 16.728 67.1768 15.902 67.1768 14.95C67.1768 13.998 67.3775 13.172 67.7788 12.472C68.1801 11.7627 68.7168 11.2167 69.3888 10.834C70.0701 10.4513 70.8261 10.26 71.6568 10.26C72.4875 10.26 73.2388 10.4513 73.9108 10.834C74.5921 11.2167 75.1335 11.7627 75.5348 12.472C75.9361 13.172 76.1368 13.998 76.1368 14.95C76.1368 15.902 75.9361 16.728 75.5348 17.428C75.1335 18.128 74.5921 18.674 73.9108 19.066C73.2388 19.4487 72.4875 19.64 71.6568 19.64ZM71.6568 18.59C72.2915 18.59 72.8608 18.4547 73.3648 18.184C73.8688 17.904 74.2701 17.4933 74.5688 16.952C74.8675 16.4107 75.0168 15.7433 75.0168 14.95C75.0168 14.1567 74.8675 13.494 74.5688 12.962C74.2701 12.4207 73.8688 12.01 73.3648 11.73C72.8608 11.45 72.2915 11.31 71.6568 11.31C71.0315 11.31 70.4621 11.45 69.9488 11.73C69.4448 12.01 69.0435 12.4207 68.7448 12.962C68.4461 13.494 68.2968 14.1567 68.2968 14.95C68.2968 15.7433 68.4461 16.4107 68.7448 16.952C69.0435 17.4933 69.4448 17.904 69.9488 18.184C70.4621 18.4547 71.0315 18.59 71.6568 18.59ZM79.2201 19.5V10.4H83.2381C83.8727 10.4 84.4141 10.498 84.8621 10.694C85.3101 10.8807 85.6507 11.1653 85.8841 11.548C86.1267 11.9307 86.2481 12.4113 86.2481 12.99C86.2481 13.382 86.1827 13.718 86.0521 13.998C85.9307 14.278 85.7581 14.516 85.5341 14.712C85.3101 14.8987 85.0441 15.0433 84.7361 15.146C84.4374 15.2487 84.1107 15.314 83.7561 15.342L83.7141 15.272C84.2087 15.2907 84.6334 15.3513 84.9881 15.454C85.3427 15.5567 85.6181 15.7433 85.8141 16.014C86.0101 16.2847 86.1081 16.6907 86.1081 17.232V19.5H84.9881V17.232C84.9881 16.8587 84.9227 16.5693 84.7921 16.364C84.6707 16.1493 84.4607 16 84.1621 15.916C83.8727 15.8227 83.4714 15.776 82.9581 15.776H80.3401V19.5H79.2201ZM80.3401 14.726H83.2381C83.8727 14.726 84.3441 14.5673 84.6521 14.25C84.9694 13.9233 85.1281 13.5033 85.1281 12.99C85.1281 12.4953 84.9694 12.1173 84.6521 11.856C84.3441 11.5853 83.8727 11.45 83.2381 11.45H80.3401V14.726ZM88.5525 10.4H95.8325V11.45H88.5525V10.4ZM91.6325 11.338H92.7525V19.5H91.6325V11.338ZM98.5938 17.12V16.07H102.962V17.12H98.5938ZM96.7458 19.5L100.204 10.4H101.38L104.866 19.5H103.662L100.624 11.268H100.96L97.9218 19.5H96.7458ZM108.647 10.4V18.45H113.687V19.5H107.527V10.4H108.647ZM58.4 27.4H59.52V36.5H58.4V27.4ZM68.5678 35.828H68.1198L72.2638 27.4H73.3838V36.5H72.2638V29.346L72.4878 29.402L68.9038 36.5H67.7838L64.1998 29.416L64.4238 29.36V36.5H63.3038V27.4H64.4238L68.5678 35.828ZM80.9422 36.64C80.1115 36.64 79.3555 36.4487 78.6742 36.066C78.0022 35.674 77.4655 35.128 77.0642 34.428C76.6629 33.728 76.4622 32.902 76.4622 31.95C76.4622 30.998 76.6629 30.172 77.0642 29.472C77.4655 28.7627 78.0022 28.2167 78.6742 27.834C79.3555 27.4513 80.1115 27.26 80.9422 27.26C81.7729 27.26 82.5242 27.4513 83.1962 27.834C83.8775 28.2167 84.4189 28.7627 84.8202 29.472C85.2215 30.172 85.4222 30.998 85.4222 31.95C85.4222 32.902 85.2215 33.728 84.8202 34.428C84.4189 35.128 83.8775 35.674 83.1962 36.066C82.5242 36.4487 81.7729 36.64 80.9422 36.64ZM80.9422 35.59C81.5769 35.59 82.1462 35.4547 82.6502 35.184C83.1542 34.904 83.5555 34.4933 83.8542 33.952C84.1529 33.4107 84.3022 32.7433 84.3022 31.95C84.3022 31.1567 84.1529 30.494 83.8542 29.962C83.5555 29.4207 83.1542 29.01 82.6502 28.73C82.1462 28.45 81.5769 28.31 80.9422 28.31C80.3169 28.31 79.7475 28.45 79.2342 28.73C78.7302 29.01 78.3289 29.4207 78.0302 29.962C77.7315 30.494 77.5822 31.1567 77.5822 31.95C77.5822 32.7433 77.7315 33.4107 78.0302 33.952C78.3289 34.4933 78.7302 34.904 79.2342 35.184C79.7475 35.4547 80.3169 35.59 80.9422 35.59ZM88.5055 36.5V27.4H92.0895C93.0321 27.4 93.7648 27.6147 94.2875 28.044C94.8195 28.4733 95.0855 29.0707 95.0855 29.836C95.0855 30.312 94.9875 30.6993 94.7915 30.998C94.6048 31.2967 94.3388 31.5207 93.9935 31.67C93.6481 31.8193 93.2421 31.9173 92.7755 31.964L92.8035 31.88C93.1488 31.8987 93.4755 31.9453 93.7835 32.02C94.0915 32.0853 94.3621 32.1927 94.5955 32.342C94.8381 32.4913 95.0295 32.6967 95.1695 32.958C95.3095 33.2193 95.3795 33.5553 95.3795 33.966C95.3795 34.5167 95.2581 34.974 95.0155 35.338C94.7728 35.702 94.4321 35.982 93.9935 36.178C93.5641 36.3647 93.0695 36.472 92.5095 36.5H88.5055ZM89.6255 35.45H92.2295C92.8641 35.45 93.3588 35.3333 93.7135 35.1C94.0775 34.8573 94.2595 34.4793 94.2595 33.966C94.2595 33.5553 94.1428 33.2473 93.9095 33.042C93.6855 32.8367 93.3961 32.7013 93.0415 32.636C92.6868 32.5613 92.3228 32.524 91.9495 32.524H89.6255V35.45ZM89.6255 31.474H91.9495C92.5841 31.474 93.0788 31.3387 93.4335 31.068C93.7975 30.788 93.9795 30.3913 93.9795 29.878C93.9795 29.374 93.7975 29.01 93.4335 28.786C93.0788 28.562 92.6308 28.45 92.0895 28.45H89.6255V31.474ZM98.6724 27.4H99.7924V36.5H98.6724V27.4ZM104.696 27.4V35.45H109.736V36.5H103.576V27.4H104.696ZM113.101 27.4H114.221V36.5H113.101V27.4ZM119.012 34.12V33.07H123.38V34.12H119.012ZM117.164 36.5L120.622 27.4H121.798L125.284 36.5H124.08L121.042 28.268H121.378L118.34 36.5H117.164ZM120.664 26.126L122.148 23.872H123.618L121.658 26.126H120.664ZM127.946 36.5V27.4H131.964C132.599 27.4 133.14 27.498 133.588 27.694C134.036 27.8807 134.377 28.1653 134.61 28.548C134.853 28.9307 134.974 29.4113 134.974 29.99C134.974 30.382 134.909 30.718 134.778 30.998C134.657 31.278 134.484 31.516 134.26 31.712C134.036 31.8987 133.77 32.0433 133.462 32.146C133.163 32.2487 132.837 32.314 132.482 32.342L132.44 32.272C132.935 32.2907 133.359 32.3513 133.714 32.454C134.069 32.5567 134.344 32.7433 134.54 33.014C134.736 33.2847 134.834 33.6907 134.834 34.232V36.5H133.714V34.232C133.714 33.8587 133.649 33.5693 133.518 33.364C133.397 33.1493 133.187 33 132.888 32.916C132.599 32.8227 132.197 32.776 131.684 32.776H129.066V36.5H127.946ZM129.066 31.726H131.964C132.599 31.726 133.07 31.5673 133.378 31.25C133.695 30.9233 133.854 30.5033 133.854 29.99C133.854 29.4953 133.695 29.1173 133.378 28.856C133.07 28.5853 132.599 28.45 131.964 28.45H129.066V31.726ZM138.469 27.4H139.589V36.5H138.469V27.4ZM147.432 36.64C146.602 36.64 145.846 36.4487 145.164 36.066C144.492 35.674 143.956 35.128 143.554 34.428C143.153 33.728 142.952 32.902 142.952 31.95C142.952 30.998 143.153 30.172 143.554 29.472C143.956 28.7627 144.492 28.2167 145.164 27.834C145.846 27.4513 146.602 27.26 147.432 27.26C148.263 27.26 149.014 27.4513 149.686 27.834C150.368 28.2167 150.909 28.7627 151.31 29.472C151.712 30.172 151.912 30.998 151.912 31.95C151.912 32.902 151.712 33.728 151.31 34.428C150.909 35.128 150.368 35.674 149.686 36.066C149.014 36.4487 148.263 36.64 147.432 36.64ZM147.432 35.59C148.067 35.59 148.636 35.4547 149.14 35.184C149.644 34.904 150.046 34.4933 150.344 33.952C150.643 33.4107 150.792 32.7433 150.792 31.95C150.792 31.1567 150.643 30.494 150.344 29.962C150.046 29.4207 149.644 29.01 149.14 28.73C148.636 28.45 148.067 28.31 147.432 28.31C146.807 28.31 146.238 28.45 145.724 28.73C145.22 29.01 144.819 29.4207 144.52 29.962C144.222 30.494 144.072 31.1567 144.072 31.95C144.072 32.7433 144.222 33.4107 144.52 33.952C144.819 34.4933 145.22 34.904 145.724 35.184C146.238 35.4547 146.807 35.59 147.432 35.59Z" fill="#004CDD"/>
<path d="M58.988 16.28H58.588V16.68H58.988V16.28ZM58.988 15.23V14.83H58.588V15.23H58.988ZM63.202 11.968L62.9191 12.2509L62.9269 12.2584L63.202 11.968ZM59.212 11.45V11.05H58.812V11.45H59.212ZM59.212 19.5V19.9H59.612V19.5H59.212ZM58.092 19.5H57.692V19.9H58.092V19.5ZM58.092 10.4V10H57.692V10.4H58.092ZM63.02 10.596L62.8849 10.9725V10.9725L63.02 10.596ZM63.972 11.17L63.6994 11.4628L63.7044 11.4673L63.972 11.17ZM64.616 12.094L64.2458 12.2459L64.2493 12.2538L64.616 12.094ZM64.616 14.586L64.2492 14.4261L64.2459 14.4342L64.616 14.586ZM63.972 15.51L63.7044 15.2126L63.6994 15.2172L63.972 15.51ZM63.02 16.084L62.8849 15.7075L62.8849 15.7075L63.02 16.084ZM58.988 16.28H59.388V15.23H58.988H58.588V16.28H58.988ZM58.988 15.23V15.63H61.844V15.23V14.83H58.988V15.23ZM61.844 15.23V15.63C62.4932 15.63 63.0533 15.4263 63.4848 14.9948L63.202 14.712L62.9192 14.4292C62.66 14.6883 62.3148 14.83 61.844 14.83V15.23ZM63.202 14.712L63.4848 14.9948C63.9236 14.5561 64.134 13.9926 64.134 13.34H63.734H63.334C63.334 13.8074 63.1898 14.1586 62.9192 14.4292L63.202 14.712ZM63.734 13.34H64.134C64.134 12.6735 63.9262 12.103 63.4771 11.6776L63.202 11.968L62.9269 12.2584C63.1872 12.505 63.334 12.8492 63.334 13.34H63.734ZM63.202 11.968L63.4848 11.6852C63.0533 11.2537 62.4932 11.05 61.844 11.05V11.45V11.85C62.3148 11.85 62.66 11.9917 62.9192 12.2508L63.202 11.968ZM61.844 11.45V11.05H59.212V11.45V11.85H61.844V11.45ZM59.212 11.45H58.812V19.5H59.212H59.612V11.45H59.212ZM59.212 19.5V19.1H58.092V19.5V19.9H59.212V19.5ZM58.092 19.5H58.492V10.4H58.092H57.692V19.5H58.092ZM58.092 10.4V10.8H61.844V10.4V10H58.092V10.4ZM61.844 10.4V10.8C62.2219 10.8 62.5678 10.8587 62.8849 10.9725L63.02 10.596L63.1551 10.2195C62.7442 10.072 62.3061 10 61.844 10V10.4ZM63.02 10.596L62.8849 10.9725C63.2002 11.0857 63.4702 11.2494 63.6994 11.4628L63.972 11.17L64.2446 10.8772C63.9324 10.5866 63.5678 10.3676 63.1551 10.2195L63.02 10.596ZM63.972 11.17L63.7044 11.4673C63.9378 11.6773 64.1184 11.9349 64.2459 12.2458L64.616 12.094L64.9861 11.9422C64.815 11.5251 64.5662 11.1667 64.2396 10.8727L63.972 11.17ZM64.616 12.094L64.2493 12.2538C64.3825 12.5594 64.454 12.9188 64.454 13.34H64.854H65.254C65.254 12.8278 65.1668 12.3566 64.9827 11.9342L64.616 12.094ZM64.854 13.34H64.454C64.454 13.7612 64.3825 14.1206 64.2493 14.4262L64.616 14.586L64.9827 14.7458C65.1668 14.3234 65.254 13.8522 65.254 13.34H64.854ZM64.616 14.586L64.2459 14.4342C64.1184 14.7451 63.9378 15.0027 63.7044 15.2127L63.972 15.51L64.2396 15.8073C64.5662 15.5133 64.815 15.1549 64.9861 14.7378L64.616 14.586ZM63.972 15.51L63.6994 15.2172C63.4702 15.4306 63.2002 15.5943 62.8849 15.7075L63.02 16.084L63.1551 16.4605C63.5678 16.3124 63.9324 16.0934 64.2446 15.8028L63.972 15.51ZM63.02 16.084L62.8849 15.7075C62.5678 15.8213 62.2219 15.88 61.844 15.88V16.28V16.68C62.3061 16.68 62.7442 16.608 63.1551 16.4605L63.02 16.084ZM61.844 16.28V15.88H58.988V16.28V16.68H61.844V16.28ZM69.3888 19.066L69.1872 19.4116L69.1929 19.4148L69.3888 19.066ZM67.7788 17.428L67.4318 17.627V17.627L67.7788 17.428ZM67.7788 12.472L68.1258 12.671L68.1269 12.669L67.7788 12.472ZM69.3888 10.834L69.1929 10.4852L69.1909 10.4864L69.3888 10.834ZM73.9108 10.834L73.7129 11.1816L73.7149 11.1828L73.9108 10.834ZM75.5348 12.472L75.1867 12.669L75.1878 12.671L75.5348 12.472ZM75.5348 17.428L75.1878 17.229L75.1878 17.229L75.5348 17.428ZM73.9108 19.066L74.1087 19.4136L74.1103 19.4127L73.9108 19.066ZM73.3648 18.184L73.5541 18.5364L73.5591 18.5337L73.3648 18.184ZM74.5688 16.952L74.2186 16.7588V16.7588L74.5688 16.952ZM74.5688 12.962L74.2186 13.1552L74.22 13.1578L74.5688 12.962ZM73.3648 11.73L73.1705 12.0797V12.0797L73.3648 11.73ZM69.9488 11.73L69.7573 11.3788L69.7545 11.3803L69.9488 11.73ZM68.7448 12.962L69.0936 13.1578L69.095 13.1552L68.7448 12.962ZM68.7448 16.952L68.3946 17.1452V17.1452L68.7448 16.952ZM69.9488 18.184L69.7545 18.5337L69.7622 18.5378L69.9488 18.184ZM71.6568 19.64V19.24C70.8903 19.24 70.2024 19.0642 69.5847 18.7172L69.3888 19.066L69.1929 19.4148C69.9379 19.8331 70.762 20.04 71.6568 20.04V19.64ZM69.3888 19.066L69.5903 18.7205C68.9811 18.3651 68.4937 17.8707 68.1258 17.229L67.7788 17.428L67.4318 17.627C67.8666 18.3853 68.4525 18.9829 69.1872 19.4115L69.3888 19.066ZM67.7788 17.428L68.1258 17.229C67.765 16.5997 67.5768 15.8448 67.5768 14.95H67.1768H66.7768C66.7768 15.9592 66.99 16.8563 67.4318 17.627L67.7788 17.428ZM67.1768 14.95H67.5768C67.5768 14.0552 67.765 13.3003 68.1258 12.671L67.7788 12.472L67.4318 12.273C66.99 13.0437 66.7768 13.9408 66.7768 14.95H67.1768ZM67.7788 12.472L68.1269 12.669C68.4947 12.019 68.9809 11.5266 69.5867 11.1816L69.3888 10.834L69.1909 10.4864C68.4527 10.9068 67.8655 11.5064 67.4307 12.275L67.7788 12.472ZM69.3888 10.834L69.5847 11.1828C70.2024 10.8358 70.8903 10.66 71.6568 10.66V10.26V9.86C70.762 9.86 69.9379 10.0669 69.1929 10.4852L69.3888 10.834ZM71.6568 10.26V10.66C72.4234 10.66 73.1056 10.8358 73.7129 11.1816L73.9108 10.834L74.1087 10.4864C73.372 10.0669 72.5516 9.86 71.6568 9.86V10.26ZM73.9108 10.834L73.7149 11.1828C74.3298 11.5281 74.8197 12.0203 75.1867 12.669L75.5348 12.472L75.8829 12.275C75.4473 11.505 74.8545 10.9052 74.1067 10.4852L73.9108 10.834ZM75.5348 12.472L75.1878 12.671C75.5486 13.3003 75.7368 14.0552 75.7368 14.95H76.1368H76.5368C76.5368 13.9408 76.3236 13.0437 75.8818 12.273L75.5348 12.472ZM76.1368 14.95H75.7368C75.7368 15.8448 75.5486 16.5997 75.1878 17.229L75.5348 17.428L75.8818 17.627C76.3236 16.8563 76.5368 15.9592 76.5368 14.95H76.1368ZM75.5348 17.428L75.1878 17.229C74.8207 17.8693 74.3296 18.3636 73.7113 18.7193L73.9108 19.066L74.1103 19.4127C74.8547 18.9844 75.4462 18.3867 75.8818 17.627L75.5348 17.428ZM73.9108 19.066L73.7129 18.7184C73.1056 19.0642 72.4234 19.24 71.6568 19.24V19.64V20.04C72.5516 20.04 73.372 19.8331 74.1087 19.4136L73.9108 19.066ZM71.6568 18.59V18.99C72.3502 18.99 72.9857 18.8416 73.554 18.5364L73.3648 18.184L73.1755 17.8316C72.7359 18.0677 72.2328 18.19 71.6568 18.19V18.59ZM73.3648 18.184L73.5591 18.5337C74.1335 18.2145 74.5868 17.7474 74.919 17.1452L74.5688 16.952L74.2186 16.7588C73.9534 17.2393 73.6041 17.5935 73.1705 17.8343L73.3648 18.184ZM74.5688 16.952L74.919 17.1452C75.2583 16.5303 75.4168 15.7922 75.4168 14.95H75.0168H74.6168C74.6168 15.6944 74.4766 16.291 74.2186 16.7588L74.5688 16.952ZM75.0168 14.95H75.4168C75.4168 14.1081 75.2584 13.3733 74.9176 12.7662L74.5688 12.962L74.22 13.1578C74.4765 13.6147 74.6168 14.2052 74.6168 14.95H75.0168ZM74.5688 12.962L74.919 12.7688C74.5868 12.1666 74.1335 11.6995 73.5591 11.3803L73.3648 11.73L73.1705 12.0797C73.6041 12.3205 73.9534 12.6747 74.2186 13.1552L74.5688 12.962ZM73.3648 11.73L73.5591 11.3803C72.9898 11.0641 72.3524 10.91 71.6568 10.91V11.31V11.71C72.2305 11.71 72.7318 11.8359 73.1705 12.0797L73.3648 11.73ZM71.6568 11.31V10.91C70.9693 10.91 70.3334 11.0646 69.7573 11.3788L69.9488 11.73L70.1403 12.0812C70.5909 11.8354 71.0936 11.71 71.6568 11.71V11.31ZM69.9488 11.73L69.7545 11.3803C69.1801 11.6995 68.7268 12.1666 68.3946 12.7688L68.7448 12.962L69.095 13.1552C69.3602 12.6747 69.7095 12.3205 70.1431 12.0797L69.9488 11.73ZM68.7448 12.962L68.396 12.7662C68.0552 13.3733 67.8968 14.1081 67.8968 14.95H68.2968H68.6968C68.6968 14.2052 68.8371 13.6147 69.0936 13.1578L68.7448 12.962ZM68.2968 14.95H67.8968C67.8968 15.7922 68.0553 16.5303 68.3946 17.1452L68.7448 16.952L69.095 16.7588C68.837 16.291 68.6968 15.6944 68.6968 14.95H68.2968ZM68.7448 16.952L68.3946 17.1452C68.7268 17.7474 69.1801 18.2145 69.7545 18.5337L69.9488 18.184L70.1431 17.8343C69.7095 17.5935 69.3602 17.2393 69.095 16.7588L68.7448 16.952ZM69.9488 18.184L69.7622 18.5378C70.3375 18.8411 70.9716 18.99 71.6568 18.99V18.59V18.19C71.0913 18.19 70.5868 18.0682 70.1354 17.8302L69.9488 18.184ZM79.2201 19.5H78.8201V19.9H79.2201V19.5ZM79.2201 10.4V10H78.8201V10.4H79.2201ZM84.8621 10.694L84.7017 11.0605L84.7082 11.0632L84.8621 10.694ZM85.8841 11.548L85.5425 11.7563L85.5463 11.7622L85.8841 11.548ZM86.0521 13.998L85.6895 13.8288L85.6851 13.839L86.0521 13.998ZM85.5341 14.712L85.7902 15.0194L85.7975 15.013L85.5341 14.712ZM84.7361 15.146L84.6096 14.7665L84.606 14.7677L84.7361 15.146ZM83.7561 15.342L83.4131 15.5478L83.5406 15.7603L83.7876 15.7408L83.7561 15.342ZM83.7141 15.272L83.7292 14.8723L82.9911 14.8444L83.3711 15.4778L83.7141 15.272ZM84.9881 15.454L84.8769 15.8382V15.8382L84.9881 15.454ZM85.8141 16.014L85.4901 16.2486H85.4901L85.8141 16.014ZM86.1081 19.5V19.9H86.5081V19.5H86.1081ZM84.9881 19.5H84.5881V19.9H84.9881V19.5ZM84.7921 16.364L84.4439 16.5608L84.449 16.5699L84.4546 16.5787L84.7921 16.364ZM84.1621 15.916L84.0393 16.2967L84.0465 16.299L84.0538 16.3011L84.1621 15.916ZM80.3401 15.776V15.376H79.9401V15.776H80.3401ZM80.3401 19.5V19.9H80.7401V19.5H80.3401ZM80.3401 14.726H79.9401V15.126H80.3401V14.726ZM84.6521 14.25L84.3652 13.9713L84.365 13.9714L84.6521 14.25ZM84.6521 11.856L84.3879 12.1566L84.3978 12.1648L84.6521 11.856ZM80.3401 11.45V11.05H79.9401V11.45H80.3401ZM79.2201 19.5H79.6201V10.4H79.2201H78.8201V19.5H79.2201ZM79.2201 10.4V10.8H83.2381V10.4V10H79.2201V10.4ZM83.2381 10.4V10.8C83.8333 10.8 84.317 10.8921 84.7018 11.0605L84.8621 10.694L85.0224 10.3275C84.5112 10.1039 83.9122 10 83.2381 10V10.4ZM84.8621 10.694L84.7082 11.0632C85.0851 11.2202 85.3569 11.4518 85.5426 11.7562L85.8841 11.548L86.2256 11.3398C85.9446 10.8789 85.5351 10.5411 85.0159 10.3248L84.8621 10.694ZM85.8841 11.548L85.5463 11.7622C85.7385 12.0653 85.8481 12.4664 85.8481 12.99H86.2481H86.6481C86.6481 12.3563 86.515 11.7961 86.2219 11.3338L85.8841 11.548ZM86.2481 12.99H85.8481C85.8481 13.3387 85.7898 13.614 85.6896 13.8288L86.0521 13.998L86.4146 14.1672C86.5756 13.822 86.6481 13.4253 86.6481 12.99H86.2481ZM86.0521 13.998L85.6851 13.839C85.5867 14.0659 85.4489 14.255 85.2707 14.411L85.5341 14.712L85.7975 15.013C86.0673 14.777 86.2748 14.4901 86.4191 14.157L86.0521 13.998ZM85.5341 14.712L85.278 14.4047C85.0964 14.556 84.8756 14.6778 84.6096 14.7665L84.7361 15.146L84.8626 15.5255C85.2125 15.4088 85.5237 15.2413 85.7902 15.0193L85.5341 14.712ZM84.7361 15.146L84.606 14.7677C84.343 14.8582 84.0498 14.9176 83.7246 14.9432L83.7561 15.342L83.7876 15.7408C84.1716 15.7104 84.5319 15.6392 84.8661 15.5243L84.7361 15.146ZM83.7561 15.342L84.0991 15.1362L84.0571 15.0662L83.7141 15.272L83.3711 15.4778L83.4131 15.5478L83.7561 15.342ZM83.7141 15.272L83.699 15.6717C84.1714 15.6895 84.562 15.7471 84.8769 15.8382L84.9881 15.454L85.0993 15.0698C84.7048 14.9556 84.2461 14.8918 83.7292 14.8723L83.7141 15.272ZM84.9881 15.454L84.8769 15.8382C85.1554 15.9189 85.3519 16.0577 85.4901 16.2486L85.8141 16.014L86.1381 15.7794C85.8843 15.4289 85.5301 15.1945 85.0993 15.0698L84.9881 15.454ZM85.8141 16.014L85.4901 16.2486C85.6145 16.4204 85.7081 16.727 85.7081 17.232H86.1081H86.5081C86.5081 16.6543 86.4056 16.1489 86.1381 15.7794L85.8141 16.014ZM86.1081 17.232H85.7081V19.5H86.1081H86.5081V17.232H86.1081ZM86.1081 19.5V19.1H84.9881V19.5V19.9H86.1081V19.5ZM84.9881 19.5H85.3881V17.232H84.9881H84.5881V19.5H84.9881ZM84.9881 17.232H85.3881C85.3881 16.8202 85.3174 16.4444 85.1295 16.1493L84.7921 16.364L84.4546 16.5787C84.5281 16.6942 84.5881 16.8971 84.5881 17.232H84.9881ZM84.7921 16.364L85.1403 16.1672C84.9544 15.8382 84.6431 15.6358 84.2704 15.5309L84.1621 15.916L84.0538 16.3011C84.2784 16.3642 84.3871 16.4604 84.4439 16.5608L84.7921 16.364ZM84.1621 15.916L84.2849 15.5353C83.9378 15.4234 83.4886 15.376 82.9581 15.376V15.776V16.176C83.4542 16.176 83.8077 16.222 84.0393 16.2967L84.1621 15.916ZM82.9581 15.776V15.376H80.3401V15.776V16.176H82.9581V15.776ZM80.3401 15.776H79.9401V19.5H80.3401H80.7401V15.776H80.3401ZM80.3401 19.5V19.1H79.2201V19.5V19.9H80.3401V19.5ZM80.3401 14.726V15.126H83.2381V14.726V14.326H80.3401V14.726ZM83.2381 14.726V15.126C83.9334 15.126 84.5281 14.9521 84.9391 14.5286L84.6521 14.25L84.365 13.9714C84.1601 14.1826 83.8121 14.326 83.2381 14.326V14.726ZM84.6521 14.25L84.939 14.5287C85.3383 14.1177 85.5281 13.593 85.5281 12.99H85.1281H84.7281C84.7281 13.4136 84.6005 13.729 84.3652 13.9713L84.6521 14.25ZM85.1281 12.99H85.5281C85.5281 12.4026 85.3349 11.9001 84.9064 11.5472L84.6521 11.856L84.3978 12.1648C84.604 12.3346 84.7281 12.588 84.7281 12.99H85.1281ZM84.6521 11.856L84.9161 11.5555C84.5042 11.1936 83.9189 11.05 83.2381 11.05V11.45V11.85C83.8266 11.85 84.1839 11.9771 84.388 12.1565L84.6521 11.856ZM83.2381 11.45V11.05H80.3401V11.45V11.85H83.2381V11.45ZM80.3401 11.45H79.9401V14.726H80.3401H80.7401V11.45H80.3401ZM88.5525 10.4V10H88.1525V10.4H88.5525ZM95.8325 10.4H96.2325V10H95.8325V10.4ZM95.8325 11.45V11.85H96.2325V11.45H95.8325ZM88.5525 11.45H88.1525V11.85H88.5525V11.45ZM91.6325 11.338V10.938H91.2325V11.338H91.6325ZM92.7525 11.338H93.1525V10.938H92.7525V11.338ZM92.7525 19.5V19.9H93.1525V19.5H92.7525ZM91.6325 19.5H91.2325V19.9H91.6325V19.5ZM88.5525 10.4V10.8H95.8325V10.4V10H88.5525V10.4ZM95.8325 10.4H95.4325V11.45H95.8325H96.2325V10.4H95.8325ZM95.8325 11.45V11.05H88.5525V11.45V11.85H95.8325V11.45ZM88.5525 11.45H88.9525V10.4H88.5525H88.1525V11.45H88.5525ZM91.6325 11.338V11.738H92.7525V11.338V10.938H91.6325V11.338ZM92.7525 11.338H92.3525V19.5H92.7525H93.1525V11.338H92.7525ZM92.7525 19.5V19.1H91.6325V19.5V19.9H92.7525V19.5ZM91.6325 19.5H92.0325V11.338H91.6325H91.2325V19.5H91.6325ZM98.5938 17.12H98.1938V17.52H98.5938V17.12ZM98.5938 16.07V15.67H98.1938V16.07H98.5938ZM102.962 16.07H103.362V15.67H102.962V16.07ZM102.962 17.12V17.52H103.362V17.12H102.962ZM96.7458 19.5L96.3719 19.3579L96.1659 19.9H96.7458V19.5ZM100.204 10.4V10H99.9279L99.8299 10.2579L100.204 10.4ZM101.38 10.4L101.753 10.2569L101.655 10H101.38V10.4ZM104.866 19.5V19.9H105.447L105.239 19.3569L104.866 19.5ZM103.662 19.5L103.287 19.6385L103.383 19.9H103.662V19.5ZM100.624 11.268V10.868H100.05L100.249 11.4065L100.624 11.268ZM100.96 11.268L101.335 11.4065L101.534 10.868H100.96V11.268ZM97.9218 19.5V19.9H98.2005L98.297 19.6385L97.9218 19.5ZM98.5938 17.12H98.9938V16.07H98.5938H98.1938V17.12H98.5938ZM98.5938 16.07V16.47H102.962V16.07V15.67H98.5938V16.07ZM102.962 16.07H102.562V17.12H102.962H103.362V16.07H102.962ZM102.962 17.12V16.72H98.5938V17.12V17.52H102.962V17.12ZM96.7458 19.5L97.1197 19.6421L100.578 10.5421L100.204 10.4L99.8299 10.2579L96.3719 19.3579L96.7458 19.5ZM100.204 10.4V10.8H101.38V10.4V10H100.204V10.4ZM101.38 10.4L101.006 10.5431L104.492 19.6431L104.866 19.5L105.239 19.3569L101.753 10.2569L101.38 10.4ZM104.866 19.5V19.1H103.662V19.5V19.9H104.866V19.5ZM103.662 19.5L104.037 19.3615L100.999 11.1295L100.624 11.268L100.249 11.4065L103.287 19.6385L103.662 19.5ZM100.624 11.268V11.668H100.96V11.268V10.868H100.624V11.268ZM100.96 11.268L100.585 11.1295L97.5465 19.3615L97.9218 19.5L98.297 19.6385L101.335 11.4065L100.96 11.268ZM97.9218 19.5V19.1H96.7458V19.5V19.9H97.9218V19.5ZM108.647 10.4H109.047V10H108.647V10.4ZM108.647 18.45H108.247V18.85H108.647V18.45ZM113.687 18.45H114.087V18.05H113.687V18.45ZM113.687 19.5V19.9H114.087V19.5H113.687ZM107.527 19.5H107.127V19.9H107.527V19.5ZM107.527 10.4V10H107.127V10.4H107.527ZM108.647 10.4H108.247V18.45H108.647H109.047V10.4H108.647ZM108.647 18.45V18.85H113.687V18.45V18.05H108.647V18.45ZM113.687 18.45H113.287V19.5H113.687H114.087V18.45H113.687ZM113.687 19.5V19.1H107.527V19.5V19.9H113.687V19.5ZM107.527 19.5H107.927V10.4H107.527H107.127V19.5H107.527ZM107.527 10.4V10.8H108.647V10.4V10H107.527V10.4ZM58.4 27.4V27H58V27.4H58.4ZM59.52 27.4H59.92V27H59.52V27.4ZM59.52 36.5V36.9H59.92V36.5H59.52ZM58.4 36.5H58V36.9H58.4V36.5ZM58.4 27.4V27.8H59.52V27.4V27H58.4V27.4ZM59.52 27.4H59.12V36.5H59.52H59.92V27.4H59.52ZM59.52 36.5V36.1H58.4V36.5V36.9H59.52V36.5ZM58.4 36.5H58.8V27.4H58.4H58V36.5H58.4ZM68.5678 35.828V36.228H69.2102L68.9268 35.6515L68.5678 35.828ZM68.1198 35.828L67.7609 35.6515L67.4774 36.228H68.1198V35.828ZM72.2638 27.4V27H72.0148L71.9049 27.2235L72.2638 27.4ZM73.3838 27.4H73.7838V27H73.3838V27.4ZM73.3838 36.5V36.9H73.7838V36.5H73.3838ZM72.2638 36.5H71.8638V36.9H72.2638V36.5ZM72.2638 29.346L72.3608 28.9579L71.8638 28.8337V29.346H72.2638ZM72.4878 29.402L72.8449 29.5823L73.0706 29.1354L72.5848 29.0139L72.4878 29.402ZM68.9038 36.5V36.9H69.15L69.2609 36.6803L68.9038 36.5ZM67.7838 36.5L67.4269 36.6806L67.5379 36.9H67.7838V36.5ZM64.1998 29.416L64.1028 29.0279L63.6167 29.1495L63.8429 29.5966L64.1998 29.416ZM64.4238 29.36H64.8238V28.8477L64.3268 28.9719L64.4238 29.36ZM64.4238 36.5V36.9H64.8238V36.5H64.4238ZM63.3038 36.5H62.9038V36.9H63.3038V36.5ZM63.3038 27.4V27H62.9038V27.4H63.3038ZM64.4238 27.4L64.7828 27.2235L64.6729 27H64.4238V27.4ZM68.5678 35.828V35.428H68.1198V35.828V36.228H68.5678V35.828ZM68.1198 35.828L68.4788 36.0045L72.6228 27.5765L72.2638 27.4L71.9049 27.2235L67.7609 35.6515L68.1198 35.828ZM72.2638 27.4V27.8H73.3838V27.4V27H72.2638V27.4ZM73.3838 27.4H72.9838V36.5H73.3838H73.7838V27.4H73.3838ZM73.3838 36.5V36.1H72.2638V36.5V36.9H73.3838V36.5ZM72.2638 36.5H72.6638V29.346H72.2638H71.8638V36.5H72.2638ZM72.2638 29.346L72.1668 29.7341L72.3908 29.7901L72.4878 29.402L72.5848 29.0139L72.3608 28.9579L72.2638 29.346ZM72.4878 29.402L72.1308 29.2217L68.5468 36.3197L68.9038 36.5L69.2609 36.6803L72.8449 29.5823L72.4878 29.402ZM68.9038 36.5V36.1H67.7838V36.5V36.9H68.9038V36.5ZM67.7838 36.5L68.1407 36.3194L64.5567 29.2354L64.1998 29.416L63.8429 29.5966L67.4269 36.6806L67.7838 36.5ZM64.1998 29.416L64.2968 29.8041L64.5208 29.7481L64.4238 29.36L64.3268 28.9719L64.1028 29.0279L64.1998 29.416ZM64.4238 29.36H64.0238V36.5H64.4238H64.8238V29.36H64.4238ZM64.4238 36.5V36.1H63.3038V36.5V36.9H64.4238V36.5ZM63.3038 36.5H63.7038V27.4H63.3038H62.9038V36.5H63.3038ZM63.3038 27.4V27.8H64.4238V27.4V27H63.3038V27.4ZM64.4238 27.4L64.0649 27.5765L68.2089 36.0045L68.5678 35.828L68.9268 35.6515L64.7828 27.2235L64.4238 27.4ZM78.6742 36.066L78.4726 36.4116L78.4783 36.4148L78.6742 36.066ZM77.0642 34.428L76.7172 34.627V34.627L77.0642 34.428ZM77.0642 29.472L77.4112 29.671L77.4123 29.669L77.0642 29.472ZM78.6742 27.834L78.4783 27.4852L78.4763 27.4864L78.6742 27.834ZM83.1962 27.834L82.9982 28.1816L83.0003 28.1828L83.1962 27.834ZM84.8202 29.472L84.472 29.669L84.4732 29.671L84.8202 29.472ZM84.8202 34.428L84.4732 34.229H84.4732L84.8202 34.428ZM83.1962 36.066L83.3941 36.4136L83.3957 36.4127L83.1962 36.066ZM82.6502 35.184L82.8395 35.5364L82.8444 35.5337L82.6502 35.184ZM83.8542 33.952L83.504 33.7588V33.7588L83.8542 33.952ZM83.8542 29.962L83.5039 30.1552L83.5054 30.1578L83.8542 29.962ZM82.6502 28.73L82.4559 29.0797V29.0797L82.6502 28.73ZM79.2342 28.73L79.0426 28.3788L79.0399 28.3803L79.2342 28.73ZM78.0302 29.962L78.379 30.1578L78.3804 30.1552L78.0302 29.962ZM78.0302 33.952L77.68 34.1452V34.1452L78.0302 33.952ZM79.2342 35.184L79.0399 35.5337L79.0476 35.5378L79.2342 35.184ZM80.9422 36.64V36.24C80.1757 36.24 79.4878 36.0642 78.8701 35.7172L78.6742 36.066L78.4783 36.4148C79.2232 36.8331 80.0474 37.04 80.9422 37.04V36.64ZM78.6742 36.066L78.8757 35.7205C78.2665 35.3651 77.7791 34.8707 77.4112 34.229L77.0642 34.428L76.7172 34.627C77.152 35.3853 77.7379 35.9829 78.4726 36.4115L78.6742 36.066ZM77.0642 34.428L77.4112 34.229C77.0504 33.5997 76.8622 32.8448 76.8622 31.95H76.4622H76.0622C76.0622 32.9592 76.2753 33.8563 76.7172 34.627L77.0642 34.428ZM76.4622 31.95H76.8622C76.8622 31.0552 77.0504 30.3003 77.4112 29.671L77.0642 29.472L76.7172 29.273C76.2753 30.0437 76.0622 30.9408 76.0622 31.95H76.4622ZM77.0642 29.472L77.4123 29.669C77.7801 29.019 78.2663 28.5266 78.8721 28.1816L78.6742 27.834L78.4763 27.4864C77.7381 27.9068 77.1509 28.5064 76.716 29.275L77.0642 29.472ZM78.6742 27.834L78.8701 28.1828C79.4878 27.8358 80.1757 27.66 80.9422 27.66V27.26V26.86C80.0474 26.86 79.2232 27.0669 78.4783 27.4852L78.6742 27.834ZM80.9422 27.26V27.66C81.7088 27.66 82.391 27.8358 82.9983 28.1816L83.1962 27.834L83.3941 27.4864C82.6574 27.0669 81.8369 26.86 80.9422 26.86V27.26ZM83.1962 27.834L83.0003 28.1828C83.6152 28.5281 84.1051 29.0203 84.472 29.669L84.8202 29.472L85.1683 29.275C84.7327 28.505 84.1399 27.9052 83.3921 27.4852L83.1962 27.834ZM84.8202 29.472L84.4732 29.671C84.834 30.3003 85.0222 31.0552 85.0222 31.95H85.4222H85.8222C85.8222 30.9408 85.609 30.0437 85.1672 29.273L84.8202 29.472ZM85.4222 31.95H85.0222C85.0222 32.8448 84.834 33.5997 84.4732 34.229L84.8202 34.428L85.1672 34.627C85.609 33.8563 85.8222 32.9592 85.8222 31.95H85.4222ZM84.8202 34.428L84.4732 34.229C84.1061 34.8693 83.615 35.3636 82.9967 35.7193L83.1962 36.066L83.3957 36.4127C84.1401 35.9844 84.7316 35.3867 85.1672 34.627L84.8202 34.428ZM83.1962 36.066L82.9983 35.7184C82.391 36.0642 81.7088 36.24 80.9422 36.24V36.64V37.04C81.8369 37.04 82.6574 36.8331 83.3941 36.4136L83.1962 36.066ZM80.9422 35.59V35.99C81.6355 35.99 82.2711 35.8416 82.8394 35.5364L82.6502 35.184L82.4609 34.8316C82.0213 35.0677 81.5182 35.19 80.9422 35.19V35.59ZM82.6502 35.184L82.8444 35.5337C83.4189 35.2145 83.8722 34.7474 84.2044 34.1452L83.8542 33.952L83.504 33.7588C83.2388 34.2393 82.8895 34.5935 82.4559 34.8343L82.6502 35.184ZM83.8542 33.952L84.2044 34.1452C84.5437 33.5303 84.7022 32.7922 84.7022 31.95H84.3022H83.9022C83.9022 32.6944 83.762 33.291 83.504 33.7588L83.8542 33.952ZM84.3022 31.95H84.7022C84.7022 31.1081 84.5438 30.3733 84.203 29.7662L83.8542 29.962L83.5054 30.1578C83.7619 30.6147 83.9022 31.2052 83.9022 31.95H84.3022ZM83.8542 29.962L84.2044 29.7688C83.8722 29.1666 83.4189 28.6995 82.8444 28.3803L82.6502 28.73L82.4559 29.0797C82.8895 29.3205 83.2388 29.6747 83.504 30.1552L83.8542 29.962ZM82.6502 28.73L82.8444 28.3803C82.2752 28.0641 81.6378 27.91 80.9422 27.91V28.31V28.71C81.5159 28.71 82.0172 28.8359 82.4559 29.0797L82.6502 28.73ZM80.9422 28.31V27.91C80.2547 27.91 79.6188 28.0646 79.0426 28.3788L79.2342 28.73L79.4257 29.0812C79.8762 28.8354 80.379 28.71 80.9422 28.71V28.31ZM79.2342 28.73L79.0399 28.3803C78.4655 28.6995 78.0122 29.1666 77.68 29.7688L78.0302 29.962L78.3804 30.1552C78.6455 29.6747 78.9949 29.3205 79.4284 29.0797L79.2342 28.73ZM78.0302 29.962L77.6814 29.7662C77.3405 30.3733 77.1822 31.1081 77.1822 31.95H77.5822H77.9822C77.9822 31.2052 78.1225 30.6147 78.379 30.1578L78.0302 29.962ZM77.5822 31.95H77.1822C77.1822 32.7922 77.3407 33.5303 77.68 34.1452L78.0302 33.952L78.3804 33.7588C78.1224 33.291 77.9822 32.6944 77.9822 31.95H77.5822ZM78.0302 33.952L77.68 34.1452C78.0122 34.7474 78.4655 35.2145 79.0399 35.5337L79.2342 35.184L79.4284 34.8343C78.9949 34.5935 78.6455 34.2393 78.3804 33.7588L78.0302 33.952ZM79.2342 35.184L79.0476 35.5378C79.6229 35.8411 80.257 35.99 80.9422 35.99V35.59V35.19C80.3767 35.19 79.8722 35.0682 79.4208 34.8302L79.2342 35.184ZM88.5055 36.5H88.1055V36.9H88.5055V36.5ZM88.5055 27.4V27H88.1055V27.4H88.5055ZM94.2875 28.044L94.0336 28.3531L94.0363 28.3553L94.2875 28.044ZM94.7915 30.998L94.457 30.7785L94.4523 30.786L94.7915 30.998ZM93.9935 31.67L94.1522 32.0371V32.0371L93.9935 31.67ZM92.7755 31.964L92.396 31.8375L92.2007 32.4235L92.8153 32.362L92.7755 31.964ZM92.8035 31.88L92.8251 31.4806L92.5205 31.4641L92.424 31.7535L92.8035 31.88ZM93.7835 32.02L93.6892 32.4089L93.7005 32.4113L93.7835 32.02ZM94.5955 32.342L94.3798 32.679L94.3858 32.6827L94.5955 32.342ZM95.1695 32.958L95.5221 32.7691V32.7691L95.1695 32.958ZM95.0155 35.338L94.6827 35.1161H94.6826L95.0155 35.338ZM93.9935 36.178L94.153 36.5448L94.1566 36.5432L93.9935 36.178ZM92.5095 36.5V36.9H92.5195L92.5294 36.8995L92.5095 36.5ZM89.6255 35.45H89.2255V35.85H89.6255V35.45ZM93.7135 35.1L93.9333 35.4342L93.9353 35.4328L93.7135 35.1ZM93.9095 33.042L93.6391 33.3369L93.6452 33.3423L93.9095 33.042ZM93.0415 32.636L92.959 33.0275L92.969 33.0294L93.0415 32.636ZM89.6255 32.524V32.124H89.2255V32.524H89.6255ZM89.6255 31.474H89.2255V31.874H89.6255V31.474ZM93.4335 31.068L93.6761 31.386L93.6774 31.385L93.4335 31.068ZM93.4335 28.786L93.2199 29.1242L93.2238 29.1267L93.4335 28.786ZM89.6255 28.45V28.05H89.2255V28.45H89.6255ZM88.5055 36.5H88.9055V27.4H88.5055H88.1055V36.5H88.5055ZM88.5055 27.4V27.8H92.0895V27.4V27H88.5055V27.4ZM92.0895 27.4V27.8C92.9756 27.8 93.6061 28.0019 94.0336 28.3531L94.2875 28.044L94.5414 27.7349C93.9235 27.2274 93.0887 27 92.0895 27V27.4ZM94.2875 28.044L94.0363 28.3553C94.4621 28.699 94.6855 29.1752 94.6855 29.836H95.0855H95.4855C95.4855 28.9661 95.1768 28.2477 94.5387 27.7327L94.2875 28.044ZM95.0855 29.836H94.6855C94.6855 30.2594 94.5982 30.5635 94.4571 30.7785L94.7915 30.998L95.1259 31.2175C95.3767 30.8352 95.4855 30.3646 95.4855 29.836H95.0855ZM94.7915 30.998L94.4523 30.786C94.3116 31.0111 94.1109 31.1834 93.8347 31.3029L93.9935 31.67L94.1522 32.0371C94.5667 31.8579 94.898 31.5823 95.1307 31.21L94.7915 30.998ZM93.9935 31.67L93.8347 31.3029C93.5352 31.4324 93.171 31.5225 92.7357 31.566L92.7755 31.964L92.8153 32.362C93.3133 32.3122 93.7611 32.2063 94.1522 32.0371L93.9935 31.67ZM92.7755 31.964L93.1549 32.0905L93.1829 32.0065L92.8035 31.88L92.424 31.7535L92.396 31.8375L92.7755 31.964ZM92.8035 31.88L92.7819 32.2794C93.1049 32.2969 93.4071 32.3403 93.6892 32.4087L93.7835 32.02L93.8777 31.6313C93.5438 31.5503 93.1927 31.5005 92.8251 31.4806L92.8035 31.88ZM93.7835 32.02L93.7005 32.4113C93.9677 32.468 94.1922 32.5588 94.3798 32.6789L94.5955 32.342L94.8111 32.0051C94.532 31.8265 94.2152 31.7027 93.8665 31.6287L93.7835 32.02ZM94.5955 32.342L94.3858 32.6827C94.5658 32.7934 94.7089 32.9453 94.8169 33.1469L95.1695 32.958L95.5221 32.7691C95.3501 32.4481 95.1105 32.1893 94.8051 32.0013L94.5955 32.342ZM95.1695 32.958L94.8169 33.1469C94.9161 33.3321 94.9795 33.5972 94.9795 33.966H95.3795H95.7795C95.7795 33.5135 95.7029 33.1066 95.5221 32.7691L95.1695 32.958ZM95.3795 33.966H94.9795C94.9795 34.4581 94.8714 34.833 94.6827 35.1161L95.0155 35.338L95.3483 35.5599C95.6449 35.115 95.7795 34.5752 95.7795 33.966H95.3795ZM95.0155 35.338L94.6826 35.1161C94.4859 35.4112 94.207 35.6445 93.8303 35.8128L93.9935 36.178L94.1566 36.5432C94.6572 36.3195 95.0597 35.9928 95.3483 35.5599L95.0155 35.338ZM93.9935 36.178L93.834 35.8112C93.4566 35.9753 93.0107 36.0744 92.4895 36.1005L92.5095 36.5L92.5294 36.8995C93.1283 36.8696 93.6717 36.7541 94.153 36.5448L93.9935 36.178ZM92.5095 36.5V36.1H88.5055V36.5V36.9H92.5095V36.5ZM89.6255 35.45V35.85H92.2295V35.45V35.05H89.6255V35.45ZM92.2295 35.45V35.85C92.906 35.85 93.4885 35.7268 93.9333 35.4342L93.7135 35.1L93.4936 34.7658C93.2291 34.9399 92.8223 35.05 92.2295 35.05V35.45ZM93.7135 35.1L93.9353 35.4328C94.4312 35.1022 94.6595 34.5862 94.6595 33.966H94.2595H93.8595C93.8595 34.3724 93.7237 34.6124 93.4916 34.7672L93.7135 35.1ZM94.2595 33.966H94.6595C94.6595 33.4795 94.5189 33.0455 94.1737 32.7417L93.9095 33.042L93.6452 33.3423C93.7667 33.4492 93.8595 33.6312 93.8595 33.966H94.2595ZM93.9095 33.042L94.1798 32.7471C93.8908 32.4822 93.5285 32.319 93.1139 32.2426L93.0415 32.636L92.969 33.0294C93.2638 33.0837 93.4802 33.1911 93.6392 33.3369L93.9095 33.042ZM93.0415 32.636L93.1239 32.2446C92.7413 32.164 92.3497 32.124 91.9495 32.124V32.524V32.924C92.2959 32.924 92.6323 32.9586 92.9591 33.0274L93.0415 32.636ZM91.9495 32.524V32.124H89.6255V32.524V32.924H91.9495V32.524ZM89.6255 32.524H89.2255V35.45H89.6255H90.0255V32.524H89.6255ZM89.6255 31.474V31.874H91.9495V31.474V31.074H89.6255V31.474ZM91.9495 31.474V31.874C92.6358 31.874 93.2277 31.7282 93.6761 31.386L93.4335 31.068L93.1908 30.75C92.9299 30.9491 92.5325 31.074 91.9495 31.074V31.474ZM93.4335 31.068L93.6774 31.385C94.1523 31.0197 94.3795 30.4988 94.3795 29.878H93.9795H93.5795C93.5795 30.2839 93.4426 30.5563 93.1896 30.7509L93.4335 31.068ZM93.9795 29.878H94.3795C94.3795 29.2643 94.1483 28.7562 93.6431 28.4453L93.4335 28.786L93.2238 29.1267C93.4466 29.2638 93.5795 29.4837 93.5795 29.878H93.9795ZM93.4335 28.786L93.6471 28.4478C93.2123 28.1732 92.6848 28.05 92.0895 28.05V28.45V28.85C92.5768 28.85 92.9453 28.9508 93.2199 29.1242L93.4335 28.786ZM92.0895 28.45V28.05H89.6255V28.45V28.85H92.0895V28.45ZM89.6255 28.45H89.2255V31.474H89.6255H90.0255V28.45H89.6255ZM98.6724 27.4V27H98.2724V27.4H98.6724ZM99.7924 27.4H100.192V27H99.7924V27.4ZM99.7924 36.5V36.9H100.192V36.5H99.7924ZM98.6724 36.5H98.2724V36.9H98.6724V36.5ZM98.6724 27.4V27.8H99.7924V27.4V27H98.6724V27.4ZM99.7924 27.4H99.3924V36.5H99.7924H100.192V27.4H99.7924ZM99.7924 36.5V36.1H98.6724V36.5V36.9H99.7924V36.5ZM98.6724 36.5H99.0724V27.4H98.6724H98.2724V36.5H98.6724ZM104.696 27.4H105.096V27H104.696V27.4ZM104.696 35.45H104.296V35.85H104.696V35.45ZM109.736 35.45H110.136V35.05H109.736V35.45ZM109.736 36.5V36.9H110.136V36.5H109.736ZM103.576 36.5H103.176V36.9H103.576V36.5ZM103.576 27.4V27H103.176V27.4H103.576ZM104.696 27.4H104.296V35.45H104.696H105.096V27.4H104.696ZM104.696 35.45V35.85H109.736V35.45V35.05H104.696V35.45ZM109.736 35.45H109.336V36.5H109.736H110.136V35.45H109.736ZM109.736 36.5V36.1H103.576V36.5V36.9H109.736V36.5ZM103.576 36.5H103.976V27.4H103.576H103.176V36.5H103.576ZM103.576 27.4V27.8H104.696V27.4V27H103.576V27.4ZM113.101 27.4V27H112.701V27.4H113.101ZM114.221 27.4H114.621V27H114.221V27.4ZM114.221 36.5V36.9H114.621V36.5H114.221ZM113.101 36.5H112.701V36.9H113.101V36.5ZM113.101 27.4V27.8H114.221V27.4V27H113.101V27.4ZM114.221 27.4H113.821V36.5H114.221H114.621V27.4H114.221ZM114.221 36.5V36.1H113.101V36.5V36.9H114.221V36.5ZM113.101 36.5H113.501V27.4H113.101H112.701V36.5H113.101ZM119.012 34.12H118.612V34.52H119.012V34.12ZM119.012 33.07V32.67H118.612V33.07H119.012ZM123.38 33.07H123.78V32.67H123.38V33.07ZM123.38 34.12V34.52H123.78V34.12H123.38ZM117.164 36.5L116.791 36.3579L116.585 36.9H117.164V36.5ZM120.622 27.4V27H120.347L120.249 27.2579L120.622 27.4ZM121.798 27.4L122.172 27.2569L122.074 27H121.798V27.4ZM125.284 36.5V36.9H125.866L125.658 36.3569L125.284 36.5ZM124.08 36.5L123.705 36.6385L123.802 36.9H124.08V36.5ZM121.042 28.268V27.868H120.468L120.667 28.4065L121.042 28.268ZM121.378 28.268L121.754 28.4065L121.952 27.868H121.378V28.268ZM118.34 36.5V36.9H118.619L118.716 36.6385L118.34 36.5ZM120.664 26.126L120.33 25.906L119.922 26.526H120.664V26.126ZM122.148 23.872V23.472H121.933L121.814 23.652L122.148 23.872ZM123.618 23.872L123.92 24.1345L124.496 23.472H123.618V23.872ZM121.658 26.126V26.526H121.841L121.96 26.3885L121.658 26.126ZM119.012 34.12H119.412V33.07H119.012H118.612V34.12H119.012ZM119.012 33.07V33.47H123.38V33.07V32.67H119.012V33.07ZM123.38 33.07H122.98V34.12H123.38H123.78V33.07H123.38ZM123.38 34.12V33.72H119.012V34.12V34.52H123.38V34.12ZM117.164 36.5L117.538 36.6421L120.996 27.5421L120.622 27.4L120.249 27.2579L116.791 36.3579L117.164 36.5ZM120.622 27.4V27.8H121.798V27.4V27H120.622V27.4ZM121.798 27.4L121.425 27.5431L124.911 36.6431L125.284 36.5L125.658 36.3569L122.172 27.2569L121.798 27.4ZM125.284 36.5V36.1H124.08V36.5V36.9H125.284V36.5ZM124.08 36.5L124.456 36.3615L121.418 28.1295L121.042 28.268L120.667 28.4065L123.705 36.6385L124.08 36.5ZM121.042 28.268V28.668H121.378V28.268V27.868H121.042V28.268ZM121.378 28.268L121.003 28.1295L117.965 36.3615L118.34 36.5L118.716 36.6385L121.754 28.4065L121.378 28.268ZM118.34 36.5V36.1H117.164V36.5V36.9H118.34V36.5ZM120.664 26.126L120.999 26.346L122.483 24.092L122.148 23.872L121.814 23.652L120.33 25.906L120.664 26.126ZM122.148 23.872V24.272H123.618V23.872V23.472H122.148V23.872ZM123.618 23.872L123.317 23.6095L121.357 25.8635L121.658 26.126L121.96 26.3885L123.92 24.1345L123.618 23.872ZM121.658 26.126V25.726H120.664V26.126V26.526H121.658V26.126ZM127.946 36.5H127.546V36.9H127.946V36.5ZM127.946 27.4V27H127.546V27.4H127.946ZM133.588 27.694L133.428 28.0605L133.434 28.0632L133.588 27.694ZM134.61 28.548L134.269 28.7563L134.272 28.7622L134.61 28.548ZM134.778 30.998L134.415 30.8288L134.411 30.839L134.778 30.998ZM134.26 31.712L134.516 32.0194L134.523 32.013L134.26 31.712ZM133.462 32.146L133.336 31.7665L133.332 31.7677L133.462 32.146ZM132.482 32.342L132.139 32.5478L132.267 32.7603L132.514 32.7408L132.482 32.342ZM132.44 32.272L132.455 31.8723L131.717 31.8444L132.097 32.4778L132.44 32.272ZM133.714 32.454L133.603 32.8382V32.8382L133.714 32.454ZM134.54 33.014L134.216 33.2486V33.2486L134.54 33.014ZM134.834 36.5V36.9H135.234V36.5H134.834ZM133.714 36.5H133.314V36.9H133.714V36.5ZM133.518 33.364L133.17 33.5608L133.175 33.5699L133.181 33.5788L133.518 33.364ZM132.888 32.916L132.765 33.2967L132.773 33.299L132.78 33.3011L132.888 32.916ZM129.066 32.776V32.376H128.666V32.776H129.066ZM129.066 36.5V36.9H129.466V36.5H129.066ZM129.066 31.726H128.666V32.126H129.066V31.726ZM133.378 31.25L133.091 30.9713L133.091 30.9714L133.378 31.25ZM133.378 28.856L133.114 29.1566L133.124 29.1648L133.378 28.856ZM129.066 28.45V28.05H128.666V28.45H129.066ZM127.946 36.5H128.346V27.4H127.946H127.546V36.5H127.946ZM127.946 27.4V27.8H131.964V27.4V27H127.946V27.4ZM131.964 27.4V27.8C132.559 27.8 133.043 27.8921 133.428 28.0605L133.588 27.694L133.748 27.3275C133.237 27.1039 132.638 27 131.964 27V27.4ZM133.588 27.694L133.434 28.0632C133.811 28.2202 134.083 28.4518 134.269 28.7562L134.61 28.548L134.952 28.3398C134.671 27.8789 134.261 27.5411 133.742 27.3248L133.588 27.694ZM134.61 28.548L134.272 28.7622C134.464 29.0653 134.574 29.4664 134.574 29.99H134.974H135.374C135.374 29.3563 135.241 28.7961 134.948 28.3338L134.61 28.548ZM134.974 29.99H134.574C134.574 30.3387 134.516 30.614 134.416 30.8288L134.778 30.998L135.141 31.1672C135.302 30.822 135.374 30.4253 135.374 29.99H134.974ZM134.778 30.998L134.411 30.839C134.313 31.0659 134.175 31.255 133.997 31.411L134.26 31.712L134.523 32.013C134.793 31.777 135.001 31.4901 135.145 31.157L134.778 30.998ZM134.26 31.712L134.004 31.4047C133.822 31.556 133.602 31.6778 133.336 31.7665L133.462 32.146L133.589 32.5255C133.939 32.4088 134.25 32.2413 134.516 32.0193L134.26 31.712ZM133.462 32.146L133.332 31.7677C133.069 31.8582 132.776 31.9176 132.451 31.9432L132.482 32.342L132.514 32.7408C132.898 32.7104 133.258 32.6392 133.592 32.5243L133.462 32.146ZM132.482 32.342L132.825 32.1362L132.783 32.0662L132.44 32.272L132.097 32.4778L132.139 32.5478L132.482 32.342ZM132.44 32.272L132.425 32.6717C132.897 32.6895 133.288 32.7471 133.603 32.8382L133.714 32.454L133.825 32.0698C133.431 31.9556 132.972 31.8918 132.455 31.8723L132.44 32.272ZM133.714 32.454L133.603 32.8382C133.881 32.9189 134.078 33.0577 134.216 33.2486L134.54 33.014L134.864 32.7794C134.61 32.4289 134.256 32.1945 133.825 32.0698L133.714 32.454ZM134.54 33.014L134.216 33.2486C134.341 33.4204 134.434 33.727 134.434 34.232H134.834H135.234C135.234 33.6543 135.132 33.1489 134.864 32.7794L134.54 33.014ZM134.834 34.232H134.434V36.5H134.834H135.234V34.232H134.834ZM134.834 36.5V36.1H133.714V36.5V36.9H134.834V36.5ZM133.714 36.5H134.114V34.232H133.714H133.314V36.5H133.714ZM133.714 34.232H134.114C134.114 33.8202 134.043 33.4444 133.856 33.1493L133.518 33.364L133.181 33.5788C133.254 33.6942 133.314 33.8971 133.314 34.232H133.714ZM133.518 33.364L133.866 33.1672C133.68 32.8382 133.369 32.6358 132.996 32.5309L132.888 32.916L132.78 33.3011C133.004 33.3642 133.113 33.4604 133.17 33.5608L133.518 33.364ZM132.888 32.916L133.011 32.5353C132.664 32.4234 132.215 32.376 131.684 32.376V32.776V33.176C132.18 33.176 132.534 33.222 132.765 33.2967L132.888 32.916ZM131.684 32.776V32.376H129.066V32.776V33.176H131.684V32.776ZM129.066 32.776H128.666V36.5H129.066H129.466V32.776H129.066ZM129.066 36.5V36.1H127.946V36.5V36.9H129.066V36.5ZM129.066 31.726V32.126H131.964V31.726V31.326H129.066V31.726ZM131.964 31.726V32.126C132.659 32.126 133.254 31.9521 133.665 31.5286L133.378 31.25L133.091 30.9714C132.886 31.1826 132.538 31.326 131.964 31.326V31.726ZM133.378 31.25L133.665 31.5287C134.064 31.1177 134.254 30.593 134.254 29.99H133.854H133.454C133.454 30.4136 133.327 30.729 133.091 30.9713L133.378 31.25ZM133.854 29.99H134.254C134.254 29.4026 134.061 28.9001 133.632 28.5472L133.378 28.856L133.124 29.1648C133.33 29.3346 133.454 29.588 133.454 29.99H133.854ZM133.378 28.856L133.642 28.5555C133.23 28.1936 132.645 28.05 131.964 28.05V28.45V28.85C132.553 28.85 132.91 28.9771 133.114 29.1565L133.378 28.856ZM131.964 28.45V28.05H129.066V28.45V28.85H131.964V28.45ZM129.066 28.45H128.666V31.726H129.066H129.466V28.45H129.066ZM138.469 27.4V27H138.069V27.4H138.469ZM139.589 27.4H139.989V27H139.589V27.4ZM139.589 36.5V36.9H139.989V36.5H139.589ZM138.469 36.5H138.069V36.9H138.469V36.5ZM138.469 27.4V27.8H139.589V27.4V27H138.469V27.4ZM139.589 27.4H139.189V36.5H139.589H139.989V27.4H139.589ZM139.589 36.5V36.1H138.469V36.5V36.9H139.589V36.5ZM138.469 36.5H138.869V27.4H138.469H138.069V36.5H138.469ZM145.164 36.066L144.963 36.4116L144.968 36.4148L145.164 36.066ZM143.554 34.428L143.207 34.627V34.627L143.554 34.428ZM143.554 29.472L143.901 29.671L143.902 29.669L143.554 29.472ZM145.164 27.834L144.968 27.4852L144.966 27.4864L145.164 27.834ZM149.686 27.834L149.488 28.1816L149.49 28.1828L149.686 27.834ZM151.31 29.472L150.962 29.669L150.963 29.671L151.31 29.472ZM151.31 34.428L150.963 34.229V34.229L151.31 34.428ZM149.686 36.066L149.884 36.4136L149.886 36.4127L149.686 36.066ZM149.14 35.184L149.33 35.5364L149.335 35.5337L149.14 35.184ZM150.344 33.952L149.994 33.7588V33.7588L150.344 33.952ZM150.344 29.962L149.994 30.1552L149.996 30.1578L150.344 29.962ZM149.14 28.73L148.946 29.0797V29.0797L149.14 28.73ZM145.724 28.73L145.533 28.3788L145.53 28.3803L145.724 28.73ZM144.52 29.962L144.869 30.1578L144.871 30.1552L144.52 29.962ZM144.52 33.952L144.17 34.1452V34.1452L144.52 33.952ZM145.724 35.184L145.53 35.5337L145.538 35.5378L145.724 35.184ZM147.432 36.64V36.24C146.666 36.24 145.978 36.0642 145.36 35.7172L145.164 36.066L144.968 36.4148C145.713 36.8331 146.538 37.04 147.432 37.04V36.64ZM145.164 36.066L145.366 35.7205C144.757 35.3651 144.269 34.8707 143.901 34.229L143.554 34.428L143.207 34.627C143.642 35.3853 144.228 35.9829 144.963 36.4115L145.164 36.066ZM143.554 34.428L143.901 34.229C143.541 33.5997 143.352 32.8448 143.352 31.95H142.952H142.552C142.552 32.9592 142.765 33.8563 143.207 34.627L143.554 34.428ZM142.952 31.95H143.352C143.352 31.0552 143.541 30.3003 143.901 29.671L143.554 29.472L143.207 29.273C142.765 30.0437 142.552 30.9408 142.552 31.95H142.952ZM143.554 29.472L143.902 29.669C144.27 29.019 144.756 28.5266 145.362 28.1816L145.164 27.834L144.966 27.4864C144.228 27.9068 143.641 28.5064 143.206 29.275L143.554 29.472ZM145.164 27.834L145.36 28.1828C145.978 27.8358 146.666 27.66 147.432 27.66V27.26V26.86C146.538 26.86 145.713 27.0669 144.968 27.4852L145.164 27.834ZM147.432 27.26V27.66C148.199 27.66 148.881 27.8358 149.488 28.1816L149.686 27.834L149.884 27.4864C149.148 27.0669 148.327 26.86 147.432 26.86V27.26ZM149.686 27.834L149.49 28.1828C150.105 28.5281 150.595 29.0203 150.962 29.669L151.31 29.472L151.658 29.275C151.223 28.505 150.63 27.9052 149.882 27.4852L149.686 27.834ZM151.31 29.472L150.963 29.671C151.324 30.3003 151.512 31.0552 151.512 31.95H151.912H152.312C152.312 30.9408 152.099 30.0437 151.657 29.273L151.31 29.472ZM151.912 31.95H151.512C151.512 32.8448 151.324 33.5997 150.963 34.229L151.31 34.428L151.657 34.627C152.099 33.8563 152.312 32.9592 152.312 31.95H151.912ZM151.31 34.428L150.963 34.229C150.596 34.8693 150.105 35.3636 149.487 35.7193L149.686 36.066L149.886 36.4127C150.63 35.9844 151.222 35.3867 151.657 34.627L151.31 34.428ZM149.686 36.066L149.488 35.7184C148.881 36.0642 148.199 36.24 147.432 36.24V36.64V37.04C148.327 37.04 149.148 36.8331 149.884 36.4136L149.686 36.066ZM147.432 35.59V35.99C148.126 35.99 148.761 35.8416 149.33 35.5364L149.14 35.184L148.951 34.8316C148.511 35.0677 148.008 35.19 147.432 35.19V35.59ZM149.14 35.184L149.335 35.5337C149.909 35.2145 150.362 34.7474 150.695 34.1452L150.344 33.952L149.994 33.7588C149.729 34.2393 149.38 34.5935 148.946 34.8343L149.14 35.184ZM150.344 33.952L150.695 34.1452C151.034 33.5303 151.192 32.7922 151.192 31.95H150.792H150.392C150.392 32.6944 150.252 33.291 149.994 33.7588L150.344 33.952ZM150.792 31.95H151.192C151.192 31.1081 151.034 30.3733 150.693 29.7662L150.344 29.962L149.996 30.1578C150.252 30.6147 150.392 31.2052 150.392 31.95H150.792ZM150.344 29.962L150.695 29.7688C150.362 29.1666 149.909 28.6995 149.335 28.3803L149.14 28.73L148.946 29.0797C149.38 29.3205 149.729 29.6747 149.994 30.1552L150.344 29.962ZM149.14 28.73L149.335 28.3803C148.765 28.0641 148.128 27.91 147.432 27.91V28.31V28.71C148.006 28.71 148.507 28.8359 148.946 29.0797L149.14 28.73ZM147.432 28.31V27.91C146.745 27.91 146.109 28.0646 145.533 28.3788L145.724 28.73L145.916 29.0812C146.366 28.8354 146.869 28.71 147.432 28.71V28.31ZM145.724 28.73L145.53 28.3803C144.956 28.6995 144.502 29.1666 144.17 29.7688L144.52 29.962L144.871 30.1552C145.136 29.6747 145.485 29.3205 145.919 29.0797L145.724 28.73ZM144.52 29.962L144.172 29.7662C143.831 30.3733 143.672 31.1081 143.672 31.95H144.072H144.472C144.472 31.2052 144.613 30.6147 144.869 30.1578L144.52 29.962ZM144.072 31.95H143.672C143.672 32.7922 143.831 33.5303 144.17 34.1452L144.52 33.952L144.871 33.7588C144.613 33.291 144.472 32.6944 144.472 31.95H144.072ZM144.52 33.952L144.17 34.1452C144.502 34.7474 144.956 35.2145 145.53 35.5337L145.724 35.184L145.919 34.8343C145.485 34.5935 145.136 34.2393 144.871 33.7588L144.52 33.952ZM145.724 35.184L145.538 35.5378C146.113 35.8411 146.747 35.99 147.432 35.99V35.59V35.19C146.867 35.19 146.362 35.0682 145.911 34.8302L145.724 35.184Z" fill="#004CDD" mask="url(#path-11-outside-1_128_2217)"/>
</svg>
