<svg width="58" height="58" viewBox="0 0 58 58" fill="none" xmlns="http://www.w3.org/2000/svg">
<path d="M31.535 56.431V36.9291L33.1947 35.3731M44.8129 51.4518V36.9291L38.1739 30.7051L33.1947 35.3731M33.1947 28.6304V35.3731M49.3771 28.6304V46.8875M23.6512 11.6181H43.1531M40.6635 20.3318H54.3563" stroke="#CFCFCF" stroke-width="2.5"/>
<path d="M23.6512 56.0161V24.896M11.2032 29.8752V16.1824L23.6512 7.88374V16.1824M11.2032 29.8752H18.672V54.3563M11.2032 29.8752H5.80908M15.3526 34.0246H1.24481M2.48961 38.5888H11.2032M15.3526 38.5888H11.2032M11.2032 38.5888V50.207M23.6512 16.1824H53.5265M23.6512 16.1824V20.7467M23.6512 20.7467H34.0246M23.6512 20.7467V24.896M23.6512 24.896H43.5681" stroke="#004CDD" stroke-width="2.5"/>
<rect x="14.9376" y="18.672" width="5.80907" height="5.80907" fill="#004CDD"/>
<rect x="35.6842" y="41.0784" width="1.65974" height="1.65974" fill="#004CDD"/>
<rect x="39.0038" y="41.0784" width="1.65974" height="1.65974" fill="#004CDD"/>
<rect x="39.0038" y="44.3979" width="1.65974" height="1.65974" fill="#004CDD"/>
<rect x="35.6842" y="44.3979" width="1.65974" height="1.65974" fill="#004CDD"/>
<rect x="14.5227" y="42.3233" width="0.829868" height="0.829868" fill="#A1A1A1" stroke="#CFCFCF" stroke-width="0.829868"/>
<rect x="14.5227" y="46.4726" width="0.829868" height="0.829868" fill="#A1A1A1" stroke="#CFCFCF" stroke-width="0.829868"/>
<circle cx="28.6304" cy="28.6304" r="27.6304" stroke="#004CDD" stroke-width="2"/>
<circle cx="28.6304" cy="28.6304" r="27.6304" stroke="#004CDD" stroke-width="2"/>
</svg>
