<svg width="60" height="60" viewBox="0 0 60 60" fill="none" xmlns="http://www.w3.org/2000/svg">
<path opacity="0.21" d="M40 0C51.0457 0 60 8.95431 60 20V40C60 51.0457 51.0457 60 40 60H20C8.95431 60 3.2215e-07 51.0457 0 40V20C0 8.95431 8.95431 3.22129e-07 20 0H40Z" fill="#FFB507"/>
<path fill-rule="evenodd" clip-rule="evenodd" d="M21.3052 28.0513C25.0991 21.3504 26.996 18 30 18C33.0039 18 34.9009 21.3504 38.6948 28.0513L39.1675 28.8863C42.3202 34.4546 43.8966 37.2388 42.4718 39.2746C41.0471 41.3103 37.5223 41.3103 30.4728 41.3103H29.5272C22.4776 41.3103 18.9528 41.3103 17.5281 39.2746C16.1034 37.2388 17.6798 34.4546 20.8325 28.8863L21.3052 28.0513ZM30 23.5038C30.5385 23.5038 30.975 23.9387 30.975 24.4751V30.9502C30.975 31.4866 30.5385 31.9215 30 31.9215C29.4615 31.9215 29.025 31.4866 29.025 30.9502V24.4751C29.025 23.9387 29.4615 23.5038 30 23.5038ZM30 36.1303C30.718 36.1303 31.3 35.5505 31.3 34.8353C31.3 34.12 30.718 33.5402 30 33.5402C29.282 33.5402 28.7 34.12 28.7 34.8353C28.7 35.5505 29.282 36.1303 30 36.1303Z" fill="#FEC53D"/>
</svg>
