<svg width="60" height="60" viewBox="0 0 60 60" fill="none" xmlns="http://www.w3.org/2000/svg">
<path opacity="0.21" d="M40 0C51.0457 0 60 8.95431 60 20V40C60 51.0457 51.0457 60 40 60H20C8.95431 60 3.2215e-07 51.0457 0 40V20C0 8.95431 8.95431 3.22129e-07 20 0H40Z" fill="#3EBF8F"/>
<path d="M40.8334 29.0033V30C40.8321 32.3361 40.0756 34.6092 38.6769 36.4803C37.2781 38.3514 35.312 39.7202 33.0717 40.3826C30.8315 41.0449 28.4371 40.9654 26.2458 40.1558C24.0544 39.3462 22.1835 37.8499 20.912 35.8902C19.6405 33.9304 19.0365 31.6121 19.1902 29.281C19.3439 26.9499 20.2471 24.731 21.7649 22.9552C23.2827 21.1793 25.3339 19.9417 27.6126 19.4268C29.8913 18.912 32.2754 19.1475 34.4093 20.0983M40.8334 21.3333L30.0001 32.1775L26.7501 28.9275" stroke="#3EBF8F" stroke-width="2" stroke-linecap="round" stroke-linejoin="round"/>
</svg>
